<?xml version="1.0" encoding="UTF-8"?>
<!DOCTYPE svg PUBLIC "-//W3C//DTD SVG 1.1//EN" "http://www.w3.org/Graphics/SVG/1.1/DTD/svg11.dtd">
<svg xmlns="http://www.w3.org/2000/svg" xmlns:xlink="http://www.w3.org/1999/xlink" version="1.1" width="321px" height="321px" viewBox="-0.5 -0.5 321 321"><defs/><g><rect x="0" y="0" width="320" height="320" fill="none" stroke="none" pointer-events="all"/><rect x="-65.11" y="141.51" width="197.2" height="36.97" fill="none" stroke="none" transform="rotate(90,33.49,160)" pointer-events="all"/><path d="M -65.11 141.51 M 132.08 141.51 L 132.08 178.49 L -65.11 178.49 L -65.11 141.51" fill="none" stroke="#ffffff" stroke-width="20" stroke-linecap="square" stroke-miterlimit="10" transform="rotate(90,33.49,160)" pointer-events="all"/><rect x="187.55" y="141.51" width="197.2" height="36.97" fill="none" stroke="none" transform="translate(0,160)scale(1,-1)translate(0,-160)rotate(-90,286.14,160)" pointer-events="all"/><path d="M 187.55 141.51 M 384.74 141.51 L 384.74 178.49 L 187.55 178.49 L 187.55 141.51" fill="none" stroke="#ffffff" stroke-width="20" stroke-linecap="square" stroke-miterlimit="10" transform="translate(0,160)scale(1,-1)translate(0,-160)rotate(-90,286.14,160)" pointer-events="all"/><path d="M 51.97 209.3 L 58.14 209.3 Q 64.3 209.3 74.3 209.3 L 115.92 209.3 Q 125.92 209.3 130.39 200.35 L 170.75 119.65 Q 175.22 110.7 185.22 110.7 L 226.84 110.7 Q 236.84 110.7 232.97 110.7 L 229.1 110.7" fill="none" stroke="#ffffff" stroke-width="20" stroke-miterlimit="10" pointer-events="stroke"/><path d="M 206.46 133.2 L 251.46 110.7 L 206.46 88.2" fill="none" stroke="#ffffff" stroke-width="20" stroke-miterlimit="10" pointer-events="all"/><path d="M 162.9 184.65 L 170.75 200.35 Q 175.22 209.3 185.22 209.3 L 226.84 209.3 Q 236.84 209.3 232.97 209.3 L 229.1 209.3" fill="none" stroke="#ffffff" stroke-width="20" stroke-miterlimit="10" pointer-events="stroke"/><path d="M 206.46 231.8 L 251.46 209.3 L 206.46 186.8" fill="none" stroke="#ffffff" stroke-width="20" stroke-miterlimit="10" pointer-events="all"/><path d="M 138.25 135.35 L 130.39 119.65 Q 125.92 110.7 115.92 110.7 L 74.3 110.7 Q 64.3 110.7 58.14 110.7 L 51.97 110.7" fill="none" stroke="#ffffff" stroke-width="20" stroke-miterlimit="10" pointer-events="stroke"/></g></svg>